<svg width="126" height="27" viewBox="0 0 126 27" fill="none" xmlns="http://www.w3.org/2000/svg">
<path d="M7.5 24.5L1 17.5L7.5 15L12 20L17.5 15L12 7.5V12.5L1 10L5.5 4.5" stroke="white" stroke-width="2" stroke-linecap="round" stroke-linejoin="round"/>
<path d="M34.206 15.676V21H32.028V15.632L25.912 5.6H28.266L33.194 13.718L38.144 5.6H40.322L34.206 15.676ZM45.9296 21.132C44.7709 21.132 43.7296 20.8753 42.8056 20.362C41.8816 19.8487 41.1556 19.1447 40.6276 18.25C40.1143 17.3407 39.8576 16.314 39.8576 15.17C39.8576 14.026 40.1143 13.0067 40.6276 12.112C41.1556 11.2027 41.8816 10.4987 42.8056 10C43.7296 9.48667 44.7709 9.23 45.9296 9.23C47.0883 9.23 48.1223 9.48667 49.0316 10C49.9556 10.4987 50.6743 11.2027 51.1876 12.112C51.7156 13.0067 51.9796 14.026 51.9796 15.17C51.9796 16.314 51.7156 17.3407 51.1876 18.25C50.6743 19.1447 49.9556 19.8487 49.0316 20.362C48.1223 20.8753 47.0883 21.132 45.9296 21.132ZM45.9296 19.284C46.6776 19.284 47.3449 19.1153 47.9316 18.778C48.5329 18.426 49.0023 17.942 49.3396 17.326C49.6769 16.6953 49.8456 15.9767 49.8456 15.17C49.8456 14.3633 49.6769 13.652 49.3396 13.036C49.0023 12.4053 48.5329 11.9213 47.9316 11.584C47.3449 11.2467 46.6776 11.078 45.9296 11.078C45.1816 11.078 44.5069 11.2467 43.9056 11.584C43.3189 11.9213 42.8496 12.4053 42.4976 13.036C42.1603 13.652 41.9916 14.3633 41.9916 15.17C41.9916 15.9767 42.1603 16.6953 42.4976 17.326C42.8496 17.942 43.3189 18.426 43.9056 18.778C44.5069 19.1153 45.1816 19.284 45.9296 19.284ZM65.7684 9.34V21H63.7664V19.24C63.3411 19.8413 62.7764 20.3107 62.0724 20.648C61.3831 20.9707 60.6278 21.132 59.8064 21.132C58.2518 21.132 57.0271 20.7067 56.1324 19.856C55.2378 18.9907 54.7904 17.722 54.7904 16.05V9.34H56.9024V15.808C56.9024 16.9373 57.1738 17.7953 57.7164 18.382C58.2591 18.954 59.0364 19.24 60.0484 19.24C61.1631 19.24 62.0431 18.9027 62.6884 18.228C63.3338 17.5533 63.6564 16.6 63.6564 15.368V9.34H65.7684ZM71.8131 11.298C72.1798 10.6233 72.7224 10.11 73.4411 9.758C74.1598 9.406 75.0324 9.23 76.0591 9.23V11.276C75.9418 11.2613 75.7804 11.254 75.5751 11.254C74.4311 11.254 73.5291 11.5987 72.8691 12.288C72.2238 12.9627 71.9011 13.9307 71.9011 15.192V21H69.7891V9.34H71.8131V11.298ZM91.9148 21.176C90.3748 21.176 88.9814 20.8387 87.7348 20.164C86.5028 19.4747 85.5348 18.536 84.8308 17.348C84.1268 16.1453 83.7748 14.796 83.7748 13.3C83.7748 11.804 84.1268 10.462 84.8308 9.274C85.5348 8.07133 86.5101 7.13267 87.7568 6.458C89.0034 5.76867 90.3968 5.424 91.9368 5.424C93.1394 5.424 94.2394 5.62933 95.2368 6.04C96.2341 6.436 97.0848 7.03 97.7888 7.822L96.3588 9.208C95.2001 7.99067 93.7554 7.382 92.0248 7.382C90.8808 7.382 89.8468 7.63867 88.9228 8.152C87.9988 8.66533 87.2728 9.37667 86.7448 10.286C86.2314 11.1807 85.9748 12.1853 85.9748 13.3C85.9748 14.4147 86.2314 15.4267 86.7448 16.336C87.2728 17.2307 87.9988 17.9347 88.9228 18.448C89.8468 18.9613 90.8808 19.218 92.0248 19.218C93.7408 19.218 95.1854 18.602 96.3588 17.37L97.7888 18.756C97.0848 19.548 96.2268 20.1493 95.2148 20.56C94.2174 20.9707 93.1174 21.176 91.9148 21.176ZM100.619 9.34H102.731V21H100.619V9.34ZM101.675 7.096C101.265 7.096 100.92 6.964 100.641 6.7C100.377 6.436 100.245 6.11333 100.245 5.732C100.245 5.35067 100.377 5.028 100.641 4.764C100.92 4.48533 101.265 4.346 101.675 4.346C102.086 4.346 102.423 4.478 102.687 4.742C102.966 4.99133 103.105 5.30667 103.105 5.688C103.105 6.084 102.966 6.42133 102.687 6.7C102.423 6.964 102.086 7.096 101.675 7.096ZM113.32 20.318C113.012 20.582 112.63 20.7873 112.176 20.934C111.721 21.066 111.252 21.132 110.768 21.132C109.594 21.132 108.685 20.8167 108.04 20.186C107.394 19.5553 107.072 18.6533 107.072 17.48V11.078H105.092V9.34H107.072V6.788H109.184V9.34H112.528V11.078H109.184V17.392C109.184 18.0227 109.338 18.5067 109.646 18.844C109.968 19.1813 110.423 19.35 111.01 19.35C111.655 19.35 112.205 19.1667 112.66 18.8L113.32 20.318ZM125.976 9.34L120.322 22.166C119.824 23.354 119.237 24.19 118.562 24.674C117.902 25.158 117.103 25.4 116.164 25.4C115.592 25.4 115.035 25.3047 114.492 25.114C113.964 24.938 113.524 24.674 113.172 24.322L114.074 22.738C114.676 23.31 115.372 23.596 116.164 23.596C116.678 23.596 117.103 23.4567 117.44 23.178C117.792 22.914 118.108 22.452 118.386 21.792L118.76 20.978L113.612 9.34H115.812L119.882 18.668L123.908 9.34H125.976Z" fill="white"/>
</svg>
